<svg width="25" height="26" viewBox="0 0 25 26" fill="none" xmlns="http://www.w3.org/2000/svg">
<rect y="0.5" width="25" height="25" rx="12.5" fill="#BCE9F5"/>
<path d="M12.4987 7C11.8358 7 11.2 7.2568 10.7313 7.7139C10.2625 8.171 9.99916 8.79097 9.99916 9.43741C9.99916 10.0839 10.2625 10.7038 10.7313 11.1609C11.2 11.618 11.8358 11.8748 12.4987 11.8748C13.1616 11.8748 13.7974 11.618 14.2662 11.1609C14.7349 10.7038 14.9983 10.0839 14.9983 9.43741C14.9983 8.79097 14.7349 8.171 14.2662 7.7139C13.7974 7.2568 13.1616 7 12.4987 7ZM8.37695 13.4965C8.34862 13.6287 8.33446 13.7652 8.33446 13.906V16.7496C8.33391 17.3395 8.46537 17.9224 8.71965 18.4576C8.97393 18.9928 9.3449 19.4674 9.8067 19.8484L9.66422 19.889C9.24144 19.9996 8.80046 20.0279 8.36646 19.9723C7.93247 19.9167 7.51396 19.7782 7.13484 19.5649C6.75572 19.3515 6.42342 19.0674 6.15692 18.7288C5.89041 18.3902 5.69492 18.0037 5.58161 17.5914L5.04254 15.6292C5.00008 15.4746 4.98927 15.3134 5.01072 15.1547C5.03216 14.9961 5.08545 14.843 5.16754 14.7045C5.24963 14.5659 5.35891 14.4444 5.48914 14.347C5.61937 14.2496 5.76801 14.1781 5.92655 14.1367L8.37695 13.4965ZM15.1941 19.8484C15.6559 19.4674 16.0268 18.9928 16.2811 18.4576C16.5354 17.9224 16.6669 17.3395 16.6663 16.7496V13.906C16.6658 13.7652 16.6519 13.6287 16.6247 13.4965L19.0742 14.1367C19.3943 14.2205 19.6671 14.4248 19.8327 14.7047C19.9983 14.9846 20.0432 15.3171 19.9574 15.6292L19.4183 17.5914C19.3018 18.0153 19.0984 18.4119 18.8203 18.7571C18.5423 19.1023 18.1955 19.389 17.8007 19.6C17.406 19.8109 16.9715 19.9416 16.5235 19.9843C16.0755 20.027 15.6232 19.9808 15.1941 19.8484ZM17.9144 8.62494C17.362 8.62494 16.8322 8.83894 16.4416 9.21986C16.0509 9.60078 15.8315 10.1174 15.8315 10.6561C15.8315 11.1948 16.0509 11.7115 16.4416 12.0924C16.8322 12.4733 17.362 12.6873 17.9144 12.6873C18.4669 12.6873 18.9967 12.4733 19.3873 12.0924C19.7779 11.7115 19.9974 11.1948 19.9974 10.6561C19.9974 10.1174 19.7779 9.60078 19.3873 9.21986C18.9967 8.83894 18.4669 8.62494 17.9144 8.62494ZM7.08301 8.62494C6.53058 8.62494 6.00077 8.83894 5.61014 9.21986C5.2195 9.60078 5.00005 10.1174 5.00005 10.6561C5.00005 11.1948 5.2195 11.7115 5.61014 12.0924C6.00077 12.4733 6.53058 12.6873 7.08301 12.6873C7.63545 12.6873 8.16526 12.4733 8.55589 12.0924C8.94652 11.7115 9.16598 11.1948 9.16598 10.6561C9.16598 10.1174 8.94652 9.60078 8.55589 9.21986C8.16526 8.83894 7.63545 8.62494 7.08301 8.62494ZM10.4158 12.6873C10.0843 12.6873 9.76641 12.8157 9.53203 13.0442C9.29765 13.2728 9.16598 13.5828 9.16598 13.906V16.7496C9.16598 17.6116 9.51711 18.4382 10.1421 19.0477C10.7671 19.6571 11.6148 19.9995 12.4987 19.9995C13.3826 19.9995 14.2303 19.6571 14.8553 19.0477C15.4803 18.4382 15.8315 17.6116 15.8315 16.7496V13.906C15.8315 13.5828 15.6998 13.2728 15.4654 13.0442C15.231 12.8157 14.9131 12.6873 14.5817 12.6873H10.4158Z" fill="#1524AF"/>
</svg>
