<svg width="25" height="26" viewBox="0 0 25 26" fill="none" xmlns="http://www.w3.org/2000/svg">
<rect y="0.5" width="25" height="25" rx="12.5" fill="#BCE9F5"/>
<path d="M12.7108 5.05337C12.6447 5.01822 12.5727 5 12.4998 5C12.4269 5 12.3548 5.01822 12.2888 5.05337L4.78853 9.05346C4.70021 9.10057 4.62586 9.17616 4.57464 9.27092C4.52341 9.36569 4.49753 9.47549 4.50019 9.58684C4.50284 9.69819 4.53392 9.80623 4.58959 9.89766C4.64526 9.98909 4.7231 10.0599 4.81353 10.1015L12.3138 13.5301C12.4331 13.5848 12.5664 13.5848 12.6858 13.5301L14.7913 12.5683C16.5264 11.7756 18.4999 13.0437 18.4999 14.9514V16.7646C18.4999 17.2102 18.0862 17.5708 17.7928 17.9061C17.6053 18.1204 17.4999 18.4111 17.4999 18.7142V19.5C17.4999 20.3284 18.1715 21 19 21C19.8284 21 20.5 20.3284 20.5 19.5V18.7142C20.5 18.4111 20.3946 18.1204 20.2071 17.9061C19.9137 17.5708 19.5 17.2102 19.5 16.7646V11.1704C19.5 10.7106 19.768 10.293 20.186 10.1015C20.2764 10.0599 20.3543 9.98909 20.4099 9.89766C20.4656 9.80623 20.4967 9.69819 20.4993 9.58684C20.502 9.47549 20.4761 9.36569 20.4249 9.27092C20.3737 9.17616 20.2993 9.10057 20.211 9.05346L12.7108 5.05337Z" fill="#1524AF"/>
<path d="M8.67618 13.0357C8.6118 13.0087 8.5431 12.9968 8.47439 13.0007C8.40569 13.0046 8.33844 13.0242 8.27687 13.0583C8.2153 13.0925 8.16072 13.1403 8.11656 13.1989C8.0724 13.2575 8.0396 13.3257 8.02021 13.399L7.52023 15.2879C7.48521 15.4205 7.49593 15.5629 7.55029 15.6872C7.60465 15.8115 7.69875 15.9088 7.81422 15.9601L12.314 17.9601C12.4334 18.0133 12.5666 18.0133 12.686 17.9601L17.1858 15.9601C17.3013 15.9088 17.3954 15.8115 17.4497 15.6872C17.5041 15.5629 17.5148 15.4205 17.4798 15.2879L16.9798 13.399C16.9604 13.3257 16.9276 13.2575 16.8834 13.1989C16.8393 13.1403 16.7847 13.0925 16.7231 13.0583C16.6616 13.0242 16.5943 13.0046 16.5256 13.0007C16.4569 12.9968 16.3882 13.0087 16.3238 13.0357C13.8766 14.0554 11.1234 14.0554 8.67618 13.0357Z" fill="#1524AF"/>
</svg>
