<svg width="25" height="26" viewBox="0 0 25 26" fill="none" xmlns="http://www.w3.org/2000/svg">
<rect y="0.5" width="25" height="25" rx="12.5" fill="#BCE9F5"/>
<path d="M12.6598 8.0699C12.6171 8.02504 12.5604 8 12.5014 8C12.4424 8 12.3857 8.02504 12.3431 8.0699L7.07158 12.61C7.0492 12.6336 7.03139 12.6619 7.01923 12.6932C7.00707 12.7246 7.00082 12.7583 7.00086 12.7924L7 18.992C7 19.2593 7.09654 19.5157 7.26837 19.7048C7.44021 19.8938 7.67327 20 7.91628 20H10.668C10.7895 20 10.906 19.9469 10.992 19.8524C11.0779 19.7579 11.1261 19.6297 11.1261 19.496V15.2118C11.1261 15.145 11.1503 15.0809 11.1932 15.0336C11.2362 14.9864 11.2945 14.9598 11.3552 14.9598H13.6459C13.7067 14.9598 13.7649 14.9864 13.8079 15.0336C13.8509 15.0809 13.875 15.145 13.875 15.2118V19.496C13.875 19.6297 13.9233 19.7579 14.0092 19.8524C14.0951 19.9469 14.2116 20 14.3331 20H17.0837C17.3267 20 17.5598 19.8938 17.7316 19.7048C17.9035 19.5157 18 19.2593 18 18.992V12.7924C18 12.7583 17.9938 12.7246 17.9816 12.6932C17.9695 12.6619 17.9517 12.6336 17.9293 12.61L12.6598 8.0699Z" fill="#1524AF"/>
<path d="M19.8409 12.1871L17.5034 10.1001V6.93324C17.5034 6.80949 17.4507 6.6908 17.357 6.60329C17.2632 6.51578 17.136 6.46662 17.0034 6.46662H15.5034C15.3708 6.46662 15.2436 6.51578 15.1499 6.60329C15.0561 6.6908 15.0034 6.80949 15.0034 6.93324V7.86648L13.1934 6.25139C13.0241 6.09157 12.7722 6 12.5 6C12.2287 6 11.9775 6.09157 11.8081 6.25168L5.16126 12.1865C4.96689 12.3615 4.94251 12.6493 5.11939 12.8389C5.1638 12.8868 5.21819 12.9257 5.27923 12.9533C5.34027 12.9809 5.4067 12.9966 5.47446 12.9995C5.54222 13.0024 5.60991 12.9924 5.6734 12.9701C5.73689 12.9478 5.79485 12.9137 5.84376 12.8698L12.3281 7.08723C12.3746 7.04569 12.4365 7.02251 12.5009 7.02251C12.5653 7.02251 12.6272 7.04569 12.6737 7.08723L19.1587 12.8698C19.2543 12.9553 19.3822 13.002 19.5145 12.9996C19.6469 12.9972 19.7728 12.9459 19.8647 12.857C20.0565 12.6715 20.0406 12.3653 19.8409 12.1871Z" fill="#1524AF"/>
</svg>
