<svg width="42" height="42" viewBox="0 0 42 42" fill="none" xmlns="http://www.w3.org/2000/svg">
<path d="M21 30C22.1819 30 23.3522 29.7672 24.4442 29.3149C25.5361 28.8626 26.5282 28.1997 27.364 27.364C28.1997 26.5282 28.8626 25.5361 29.3149 24.4442C29.7672 23.3522 30 22.1819 30 21C30 19.8181 29.7672 18.6478 29.3149 17.5558C28.8626 16.4639 28.1997 15.4718 27.364 14.636C26.5282 13.8003 25.5361 13.1374 24.4442 12.6851C23.3522 12.2328 22.1819 12 21 12C18.6131 12 16.3239 12.9482 14.636 14.636C12.9482 16.3239 12 18.6131 12 21C12 23.3869 12.9482 25.6761 14.636 27.364C16.3239 29.0518 18.6131 30 21 30ZM32 21C32 27.075 27.075 32 21 32C14.925 32 10 27.075 10 21C10 14.925 14.925 10 21 10C27.075 10 32 14.925 32 21ZM18.525 18.526C17.8686 19.1824 17.4998 20.0727 17.4998 21.001C17.4998 21.9293 17.8686 22.8196 18.525 23.476C19.1814 24.1324 20.0717 24.5012 21 24.5012C21.9283 24.5012 22.8186 24.1324 23.475 23.476L24.182 22.768L25.596 24.183L24.889 24.89C24.1198 25.6592 23.1398 26.1831 22.0729 26.3953C21.006 26.6075 19.9001 26.4986 18.8951 26.0824C17.8901 25.6661 17.0311 24.9611 16.4268 24.0567C15.8224 23.1522 15.4998 22.0888 15.4998 21.001C15.4998 19.9132 15.8224 18.8498 16.4268 17.9453C17.0311 17.0409 17.8901 16.3359 18.8951 15.9196C19.9001 15.5034 21.006 15.3945 22.0729 15.6067C23.1398 15.8189 24.1198 16.3428 24.889 17.112L25.596 17.819L24.182 19.233L23.475 18.526C23.15 18.201 22.7641 17.9431 22.3395 17.7672C21.9148 17.5913 21.4597 17.5007 21 17.5007C20.5403 17.5007 20.0852 17.5913 19.6605 17.7672C19.2359 17.9431 18.85 18.201 18.525 18.526Z" fill="white"/>
</svg>
