<svg width="24" height="24" viewBox="0 0 24 24" fill="none" xmlns="http://www.w3.org/2000/svg">
<path d="M9.8535 3.375H19.3965C20.3025 3.375 21.0495 3.375 21.6585 3.4245C22.29 3.477 22.872 3.588 23.418 3.8655C24.2647 4.29692 24.9531 4.98531 25.3845 5.832C25.6635 6.378 25.7745 6.96 25.8255 7.5915C25.875 8.2005 25.875 8.9475 25.875 9.8535V10.125H26.475C27.2295 10.125 27.852 10.125 28.3605 10.1595C28.8885 10.1955 29.3775 10.2735 29.847 10.467C30.3931 10.6931 30.8894 11.0247 31.3073 11.4427C31.7253 11.8606 32.0568 12.3569 32.283 12.903C32.478 13.3725 32.553 13.8615 32.5905 14.388C32.625 14.898 32.625 15.5205 32.625 16.2735V16.3515C32.625 17.1045 32.625 17.727 32.5905 18.2355C32.5689 18.7221 32.4733 19.2026 32.307 19.6605C31.4419 22.6092 29.8614 25.2984 27.706 27.4888C25.5507 29.6792 22.8874 31.3029 19.953 32.2155L19.6695 32.304C19.2095 32.474 18.7255 32.5702 18.2355 32.589C17.7255 32.625 17.1045 32.625 16.3515 32.625H16.2735C15.5205 32.625 14.898 32.625 14.3895 32.5905C13.8615 32.5545 13.3725 32.4765 12.903 32.283C12.3569 32.0568 11.8606 31.7253 11.4427 31.3073C11.0247 30.8894 10.6931 30.3931 10.467 29.847C10.272 29.3775 10.197 28.8885 10.1595 28.362C10.125 27.852 10.125 27.2295 10.125 26.4765V25.875H9.855C8.949 25.875 8.2005 25.875 7.5915 25.8255C6.96 25.773 6.378 25.6635 5.832 25.3845C4.98531 24.9531 4.29692 24.2647 3.8655 23.418C3.588 22.872 3.4755 22.29 3.4245 21.6585C3.375 21.0495 3.375 20.3025 3.375 19.3965V9.8535C3.375 8.9475 3.375 8.2005 3.4245 7.5915C3.477 6.96 3.588 6.378 3.8655 5.832C4.29692 4.98531 4.98531 4.29692 5.832 3.8655C6.378 3.588 6.96 3.4755 7.5915 3.4245C8.2005 3.375 8.9475 3.375 9.8535 3.375ZM12.375 26.4375C12.375 27.2385 12.375 27.7845 12.405 28.2075C12.432 28.6215 12.4845 28.836 12.546 28.986C12.6591 29.2591 12.8248 29.5072 13.0338 29.7162C13.2428 29.9252 13.4909 30.0909 13.764 30.204C13.914 30.2655 14.1285 30.318 14.5425 30.345C14.9655 30.375 15.5115 30.375 16.3125 30.375C17.1135 30.375 17.6595 30.375 18.0825 30.345C18.4965 30.318 18.711 30.2655 18.861 30.204C19.1341 30.0909 19.3822 29.9252 19.5912 29.7162C19.8002 29.5072 19.9659 29.2591 20.079 28.986C20.1405 28.836 20.1915 28.6215 20.22 28.2075C20.25 27.7845 20.25 27.2385 20.25 26.4375V26.3985C20.25 25.6455 20.25 25.023 20.2845 24.5145C20.3205 23.9865 20.3985 23.4975 20.592 23.028C20.8181 22.4819 21.1497 21.9856 21.5677 21.5677C21.9856 21.1497 22.4819 20.8181 23.028 20.592C23.4975 20.397 23.9865 20.322 24.513 20.2845C25.023 20.25 25.6455 20.25 26.3985 20.25H26.4375C27.2385 20.25 27.7845 20.25 28.2075 20.22C28.6215 20.1915 28.836 20.1405 28.986 20.079C29.2591 19.9659 29.5072 19.8002 29.7162 19.5912C29.9252 19.3822 30.0909 19.1341 30.204 18.861C30.2655 18.711 30.318 18.4965 30.345 18.0825C30.375 17.6595 30.375 17.1135 30.375 16.3125C30.375 15.5115 30.375 14.9655 30.345 14.5425C30.318 14.1285 30.2655 13.914 30.204 13.764C30.0909 13.4909 29.9252 13.2428 29.7162 13.0338C29.5072 12.8248 29.2591 12.6591 28.986 12.546C28.836 12.4845 28.6215 12.432 28.2075 12.405C27.7845 12.375 27.2385 12.375 26.4375 12.375H16.65C15.687 12.375 15.03 12.375 14.5245 12.417C14.031 12.4575 13.779 12.531 13.6035 12.6195C13.1798 12.8353 12.8353 13.1798 12.6195 13.6035C12.5295 13.779 12.4575 14.031 12.417 14.5245C12.3765 15.0315 12.375 15.687 12.375 16.65V26.4375Z" fill="#FFDE59"/>
</svg>