<svg width="50" height="50" viewBox="0 0 50 50" fill="none" xmlns="http://www.w3.org/2000/svg">
<rect width="50" height="50" rx="5" fill="url(#paint0_linear_738_593)"/>
<path d="M38.2535 14.9889L25.5035 10.7389C25.177 10.6287 24.8233 10.6287 24.4968 10.7389L11.7468 14.9889C11.4425 15.0897 11.1758 15.2798 10.9812 15.5345C10.7867 15.7892 10.6735 16.0966 10.6564 16.4167C10.6549 16.4445 10.6549 16.4725 10.6564 16.5003V27.1253C10.6564 27.548 10.8243 27.9534 11.1232 28.2523C11.4221 28.5512 11.8274 28.7191 12.2501 28.7191C12.6728 28.7191 13.0782 28.5512 13.3771 28.2523C13.676 27.9534 13.8439 27.548 13.8439 27.1253V18.7117L16.9929 19.7609C16.0156 21.6315 15.7251 23.7856 16.1721 25.8483C16.6191 27.911 17.7752 29.7517 19.4393 31.0499C17.2617 32.1237 15.4188 33.7719 14.1095 35.8166C13.9916 35.9918 13.9097 36.1887 13.8686 36.3959C13.8274 36.6031 13.8279 36.8164 13.8699 37.0233C13.9119 37.2303 13.9947 37.4269 14.1134 37.6016C14.232 37.7764 14.3842 37.9258 14.5611 38.0412C14.738 38.1565 14.9361 38.2356 15.1439 38.2738C15.3516 38.3119 15.5648 38.3084 15.7712 38.2634C15.9776 38.2185 16.1729 38.1329 16.346 38.0118C16.519 37.8906 16.6662 37.7363 16.779 37.5577C18.6743 34.6412 21.6798 32.9691 25.0001 32.9691C28.3204 32.9691 31.326 34.6412 33.2279 37.5577C33.3407 37.7363 33.4879 37.8906 33.6609 38.0118C33.8339 38.1329 34.0293 38.2185 34.2357 38.2634C34.442 38.3084 34.6553 38.3119 34.863 38.2738C35.0708 38.2356 35.2688 38.1565 35.4458 38.0412C35.6227 37.9258 35.7749 37.7764 35.8935 37.6016C36.0122 37.4269 36.0949 37.2303 36.137 37.0233C36.179 36.8164 36.1794 36.6031 36.1383 36.3959C36.0972 36.1887 36.0153 35.9918 35.8974 35.8166C34.5868 33.7696 32.7415 32.1199 30.561 31.0459C32.225 29.7477 33.3811 27.907 33.8281 25.8443C34.2751 23.7817 33.9847 21.6275 33.0074 19.7569L38.2535 18.0077C38.5704 17.9017 38.846 17.6987 39.0413 17.4275C39.2365 17.1563 39.3416 16.8305 39.3416 16.4963C39.3416 16.1621 39.2365 15.8364 39.0413 15.5652C38.846 15.2939 38.5704 15.091 38.2535 14.9849V14.9889ZM25.0001 13.9264L32.7099 16.5003L25.0001 19.0702L17.297 16.5003L25.0001 13.9264ZM30.8439 23.9378C30.844 24.8455 30.6328 25.7408 30.2268 26.5526C29.8208 27.3644 29.2313 28.0705 28.505 28.6149C27.7787 29.1593 26.9356 29.5271 26.0424 29.689C25.1493 29.8509 24.2308 29.8025 23.3596 29.5477C22.4884 29.2928 21.6885 28.8386 21.0234 28.2209C20.3583 27.6032 19.8463 26.8391 19.5278 25.9891C19.2094 25.1391 19.0933 24.2266 19.1888 23.324C19.2843 22.4213 19.5888 21.5534 20.0781 20.7888L24.4968 22.2617C24.8234 22.3715 25.1769 22.3715 25.5035 22.2617L29.9222 20.7888C30.5248 21.7285 30.8448 22.8215 30.8439 23.9378Z" fill="#FEFEFE"/>
<defs>
<linearGradient id="paint0_linear_738_593" x1="0" y1="0" x2="50" y2="50" gradientUnits="userSpaceOnUse">
<stop stop-color="#0B4695"/>
<stop offset="0.498949" stop-color="#5E96E3"/>
<stop offset="0.958252" stop-color="#0B4695"/>
</linearGradient>
</defs>
</svg>
