<svg width="50" height="50" viewBox="0 0 50 50" fill="none" xmlns="http://www.w3.org/2000/svg">
<rect width="50" height="50" rx="5" fill="url(#paint0_linear_738_567)"/>
<path d="M19.6478 12.6276C19.8462 12.6035 20.0657 12.6035 20.3207 12.6035H29.6793C29.9342 12.6035 30.1538 12.6035 30.3522 12.6276C31.0562 12.7152 31.7109 13.0351 32.2125 13.5368C32.7142 14.0385 33.0342 14.6932 33.1217 15.3972L33.126 15.4368H34.2678C34.5682 15.434 35.2269 15.4283 35.7709 15.7924C36.475 16.2613 36.6875 17.0674 36.6875 17.916C36.6875 21.7778 34.6291 24.3562 32.0012 25.7884C30.5349 28.4574 27.8263 30.3118 25 30.3118C22.8481 30.3118 20.8067 29.1473 19.3376 27.5366C18.8494 27.004 18.421 26.4197 18.0597 25.7941C15.4332 24.3689 13.3125 21.7934 13.3125 17.916C13.3125 17.066 13.525 16.2613 14.2277 15.7924C14.7731 15.4283 15.4318 15.434 15.7322 15.4368H16.874L16.8783 15.3972C16.9658 14.6932 17.2858 14.0385 17.7875 13.5368C18.2891 13.0351 18.9438 12.7152 19.6478 12.6276ZM34.537 17.5689C34.4276 17.5623 34.3179 17.56 34.2083 17.5618H33.1416L33.0963 22.2227C34.0001 21.1347 34.5625 19.7152 34.5625 17.916C34.5625 17.7488 34.5497 17.6383 34.537 17.5689ZM15.4375 17.916C15.4375 19.6684 15.9872 21.061 16.8683 22.1405C16.7748 21.0837 16.8003 20.0098 16.8258 18.9417C16.8391 18.4789 16.8471 18.019 16.8499 17.5618H15.7917C15.6372 17.5618 15.5395 17.5618 15.4644 17.5689C15.4445 17.6835 15.4355 17.7997 15.4375 17.916ZM25.3258 17.2856C25.2986 17.2217 25.2532 17.1672 25.1953 17.1289C25.1374 17.0907 25.0694 17.0702 25 17.0702C24.9306 17.0702 24.8626 17.0907 24.8047 17.1289C24.7468 17.1672 24.7014 17.2217 24.6742 17.2856L23.9587 19.0026C23.9338 19.0625 23.8928 19.1144 23.8404 19.1527C23.7879 19.1909 23.7259 19.214 23.6613 19.2193L21.8068 19.3681C21.7371 19.3736 21.6705 19.3997 21.6156 19.443C21.5606 19.4863 21.5197 19.5449 21.498 19.6115C21.4764 19.678 21.4749 19.7495 21.4938 19.8168C21.5127 19.8842 21.5511 19.9445 21.6042 19.99L23.0167 21.1998C23.066 21.2423 23.1027 21.2976 23.1227 21.3596C23.1427 21.4216 23.1452 21.4879 23.13 21.5512L22.6993 23.3588C22.6827 23.4271 22.6868 23.4987 22.711 23.5646C22.7351 23.6305 22.7784 23.6877 22.8351 23.729C22.8919 23.7703 22.9597 23.7938 23.0299 23.7965C23.1 23.7992 23.1694 23.781 23.2292 23.7442L24.8158 22.7752C24.8713 22.7414 24.935 22.7235 25 22.7235C25.065 22.7235 25.1287 22.7414 25.1842 22.7752L26.7708 23.7442C26.8306 23.781 26.9 23.7992 26.9701 23.7965C27.0403 23.7938 27.1081 23.7703 27.1649 23.729C27.2216 23.6877 27.2649 23.6305 27.289 23.5646C27.3132 23.4987 27.3173 23.4271 27.3007 23.3588L26.8686 21.5512C26.8533 21.4879 26.8559 21.4216 26.8759 21.3596C26.8958 21.2976 26.9325 21.2423 26.9819 21.1998L28.3958 19.99C28.4494 19.9446 28.4882 19.8842 28.5074 19.8166C28.5266 19.749 28.5253 19.6772 28.5036 19.6104C28.4818 19.5436 28.4407 19.4847 28.3854 19.4413C28.3302 19.3979 28.2632 19.3719 28.1932 19.3667L26.3402 19.2193C26.2752 19.2142 26.213 19.1912 26.1602 19.153C26.1075 19.1148 26.0663 19.0627 26.0412 19.0026L25.3258 17.2856ZM25 31.0202C25.2818 31.0202 25.552 31.1321 25.7513 31.3314C25.9506 31.5306 26.0625 31.8009 26.0625 32.0827V35.2702H30.6667C30.9485 35.2702 31.2187 35.3821 31.418 35.5814C31.6172 35.7806 31.7292 36.0509 31.7292 36.3327C31.7292 36.6145 31.6172 36.8847 31.418 37.084C31.2187 37.2832 30.9485 37.3952 30.6667 37.3952H19.3333C19.0515 37.3952 18.7813 37.2832 18.582 37.084C18.3828 36.8847 18.2708 36.6145 18.2708 36.3327C18.2708 36.0509 18.3828 35.7806 18.582 35.5814C18.7813 35.3821 19.0515 35.2702 19.3333 35.2702H23.9375V32.0827C23.9375 31.8009 24.0494 31.5306 24.2487 31.3314C24.448 31.1321 24.7182 31.0202 25 31.0202Z" fill="white"/>
<defs>
<linearGradient id="paint0_linear_738_567" x1="0" y1="0" x2="50" y2="50" gradientUnits="userSpaceOnUse">
<stop stop-color="#0F5DC7"/>
<stop offset="0.498949" stop-color="#00A4F9"/>
<stop offset="0.958252" stop-color="#0F5DC7"/>
</linearGradient>
</defs>
</svg>
