<svg width="50" height="50" viewBox="0 0 50 50" fill="none" xmlns="http://www.w3.org/2000/svg">
<rect width="50" height="50" rx="5" fill="url(#paint0_linear_738_589)"/>
<path d="M12.2498 13.666H36.3332C37.0846 13.666 37.8053 13.9645 38.3366 14.4959C38.868 15.0272 39.1665 15.7479 39.1665 16.4993V19.3327H33.4998V16.4993H15.0832V33.4993H27.8332V36.3327H12.2498C11.4984 36.3327 10.7777 36.0342 10.2464 35.5028C9.71501 34.9715 9.4165 34.2508 9.4165 33.4993V16.4993C9.4165 15.7479 9.71501 15.0272 10.2464 14.4959C10.7777 13.9645 11.4984 13.666 12.2498 13.666ZM32.0832 22.166H40.5832C40.9589 22.166 41.3192 22.3153 41.5849 22.5809C41.8506 22.8466 41.9998 23.207 41.9998 23.5827V37.7493C41.9998 38.1251 41.8506 38.4854 41.5849 38.7511C41.3192 39.0168 40.9589 39.166 40.5832 39.166H32.0832C31.7074 39.166 31.3471 39.0168 31.0814 38.7511C30.8158 38.4854 30.6665 38.1251 30.6665 37.7493V23.5827C30.6665 23.207 30.8158 22.8466 31.0814 22.5809C31.3471 22.3153 31.7074 22.166 32.0832 22.166ZM33.4998 24.9993V34.916H39.1665V24.9993H33.4998Z" fill="#FEFEFE"/>
<defs>
<linearGradient id="paint0_linear_738_589" x1="0" y1="0" x2="50" y2="50" gradientUnits="userSpaceOnUse">
<stop stop-color="#0F5DC7"/>
<stop offset="0.498949" stop-color="#00A4F9"/>
<stop offset="0.958252" stop-color="#0F5DC7"/>
</linearGradient>
</defs>
</svg>
