<svg width="51" height="50" viewBox="0 0 51 50" fill="none" xmlns="http://www.w3.org/2000/svg">
<rect x="0.5" width="50" height="50" rx="5" fill="url(#paint0_linear_738_593)"/>
<path d="M38.7535 14.9889L26.0035 10.7389C25.677 10.6287 25.3233 10.6287 24.9968 10.7389L12.2468 14.9889C11.9425 15.0897 11.6758 15.2798 11.4812 15.5345C11.2867 15.7892 11.1735 16.0966 11.1564 16.4167C11.1549 16.4445 11.1549 16.4725 11.1564 16.5003V27.1253C11.1564 27.548 11.3243 27.9534 11.6232 28.2523C11.9221 28.5512 12.3274 28.7191 12.7501 28.7191C13.1728 28.7191 13.5782 28.5512 13.8771 28.2523C14.176 27.9534 14.3439 27.548 14.3439 27.1253V18.7117L17.4929 19.7609C16.5156 21.6315 16.2251 23.7856 16.6721 25.8483C17.1191 27.911 18.2752 29.7517 19.9393 31.0499C17.7617 32.1237 15.9188 33.7719 14.6095 35.8166C14.4916 35.9918 14.4097 36.1887 14.3686 36.3959C14.3274 36.6031 14.3279 36.8164 14.3699 37.0233C14.4119 37.2303 14.4947 37.4269 14.6134 37.6016C14.732 37.7764 14.8842 37.9258 15.0611 38.0412C15.238 38.1565 15.4361 38.2356 15.6439 38.2738C15.8516 38.3119 16.0648 38.3084 16.2712 38.2634C16.4776 38.2185 16.6729 38.1329 16.846 38.0118C17.019 37.8906 17.1662 37.7363 17.279 37.5577C19.1743 34.6412 22.1798 32.9691 25.5001 32.9691C28.8204 32.9691 31.826 34.6412 33.7279 37.5577C33.8407 37.7363 33.9879 37.8906 34.1609 38.0118C34.3339 38.1329 34.5293 38.2185 34.7357 38.2634C34.942 38.3084 35.1553 38.3119 35.363 38.2738C35.5708 38.2356 35.7688 38.1565 35.9458 38.0412C36.1227 37.9258 36.2749 37.7764 36.3935 37.6016C36.5122 37.4269 36.5949 37.2303 36.637 37.0233C36.679 36.8164 36.6794 36.6031 36.6383 36.3959C36.5972 36.1887 36.5153 35.9918 36.3974 35.8166C35.0868 33.7696 33.2415 32.1199 31.061 31.0459C32.725 29.7477 33.8811 27.907 34.3281 25.8443C34.7751 23.7817 34.4847 21.6275 33.5074 19.7569L38.7535 18.0077C39.0704 17.9017 39.346 17.6987 39.5413 17.4275C39.7365 17.1563 39.8416 16.8305 39.8416 16.4963C39.8416 16.1621 39.7365 15.8364 39.5413 15.5652C39.346 15.2939 39.0704 15.091 38.7535 14.9849V14.9889ZM25.5001 13.9264L33.2099 16.5003L25.5001 19.0702L17.797 16.5003L25.5001 13.9264ZM31.3439 23.9378C31.344 24.8455 31.1328 25.7408 30.7268 26.5526C30.3208 27.3644 29.7313 28.0705 29.005 28.6149C28.2787 29.1593 27.4356 29.5271 26.5424 29.689C25.6493 29.8509 24.7308 29.8025 23.8596 29.5477C22.9884 29.2928 22.1885 28.8386 21.5234 28.2209C20.8583 27.6032 20.3463 26.8391 20.0278 25.9891C19.7094 25.1391 19.5933 24.2266 19.6888 23.324C19.7843 22.4213 20.0888 21.5534 20.5781 20.7888L24.9968 22.2617C25.3234 22.3715 25.6769 22.3715 26.0035 22.2617L30.4222 20.7888C31.0248 21.7285 31.3448 22.8215 31.3439 23.9378Z" fill="#FEFEFE"/>
<defs>
<linearGradient id="paint0_linear_738_593" x1="0.5" y1="0" x2="50.5" y2="50" gradientUnits="userSpaceOnUse">
<stop stop-color="#0F5DC7"/>
<stop offset="0.498949" stop-color="#00A4F9"/>
<stop offset="0.958252" stop-color="#0F5DC7"/>
</linearGradient>
</defs>
</svg>
