<svg width="50" height="50" viewBox="0 0 50 50" fill="none" xmlns="http://www.w3.org/2000/svg">
<rect width="50" height="50" rx="5" fill="url(#paint0_linear_738_585)"/>
<mask id="mask0_738_585" style="mask-type:luminance" maskUnits="userSpaceOnUse" x="11" y="11" width="28" height="28">
<path d="M37.75 35.625V14.375C37.75 13.8114 37.5261 13.2709 37.1276 12.8724C36.7291 12.4739 36.1886 12.25 35.625 12.25H14.375C13.8114 12.25 13.2709 12.4739 12.8724 12.8724C12.4739 13.2709 12.25 13.8114 12.25 14.375V35.625C12.25 36.1886 12.4739 36.7291 12.8724 37.1276C13.2709 37.5261 13.8114 37.75 14.375 37.75H35.625C36.1886 37.75 36.7291 37.5261 37.1276 37.1276C37.5261 36.7291 37.75 36.1886 37.75 35.625Z" fill="white" stroke="white" stroke-width="2" stroke-linejoin="round"/>
<path d="M24.9998 20.9746L22.9485 25.1609L18.2891 25.8366L21.6643 29.136L20.8575 33.7246L24.9998 31.5167L29.1429 33.7246L28.3424 29.136L31.7113 25.8366L27.0781 25.1609L24.9998 20.9746Z" fill="black" stroke="black" stroke-width="2" stroke-linejoin="round"/>
<path d="M20.9736 16.9473H29.026" stroke="black" stroke-width="2" stroke-linecap="round" stroke-linejoin="round"/>
</mask>
<g mask="url(#mask0_738_585)">
<path d="M8 8H42V42H8V8Z" fill="#FEFEFE"/>
</g>
<defs>
<linearGradient id="paint0_linear_738_585" x1="0" y1="0" x2="50" y2="50" gradientUnits="userSpaceOnUse">
<stop stop-color="#0B4695"/>
<stop offset="0.498949" stop-color="#5E96E3"/>
<stop offset="0.958252" stop-color="#0B4695"/>
</linearGradient>
</defs>
</svg>
