<svg width="50" height="50" viewBox="0 0 50 50" fill="none" xmlns="http://www.w3.org/2000/svg">
<rect width="50" height="50" rx="5" fill="url(#paint0_linear_738_597)"/>
<path d="M36.6875 16.5H31.375C31.375 14.8092 30.7034 13.1877 29.5078 11.9922C28.3123 10.7966 26.6908 10.125 25 10.125C23.3092 10.125 21.6877 10.7966 20.4922 11.9922C19.2966 13.1877 18.625 14.8092 18.625 16.5H13.3125C12.7489 16.5 12.2084 16.7239 11.8099 17.1224C11.4114 17.5209 11.1875 18.0614 11.1875 18.625V34.5625C11.1875 35.1261 11.4114 35.6666 11.8099 36.0651C12.2084 36.4636 12.7489 36.6875 13.3125 36.6875H36.6875C37.2511 36.6875 37.7916 36.4636 38.1901 36.0651C38.5886 35.6666 38.8125 35.1261 38.8125 34.5625V18.625C38.8125 18.0614 38.5886 17.5209 38.1901 17.1224C37.7916 16.7239 37.2511 16.5 36.6875 16.5ZM20.75 21.8125C20.75 22.0943 20.6381 22.3645 20.4388 22.5638C20.2395 22.7631 19.9693 22.875 19.6875 22.875C19.4057 22.875 19.1355 22.7631 18.9362 22.5638C18.7369 22.3645 18.625 22.0943 18.625 21.8125V19.6875C18.625 19.4057 18.7369 19.1355 18.9362 18.9362C19.1355 18.7369 19.4057 18.625 19.6875 18.625C19.9693 18.625 20.2395 18.7369 20.4388 18.9362C20.6381 19.1355 20.75 19.4057 20.75 19.6875V21.8125ZM25 12.25C26.1272 12.25 27.2082 12.6978 28.0052 13.4948C28.8022 14.2918 29.25 15.3728 29.25 16.5H20.75C20.75 15.3728 21.1978 14.2918 21.9948 13.4948C22.7918 12.6978 23.8728 12.25 25 12.25ZM31.375 21.8125C31.375 22.0943 31.2631 22.3645 31.0638 22.5638C30.8645 22.7631 30.5943 22.875 30.3125 22.875C30.0307 22.875 29.7605 22.7631 29.5612 22.5638C29.3619 22.3645 29.25 22.0943 29.25 21.8125V19.6875C29.25 19.4057 29.3619 19.1355 29.5612 18.9362C29.7605 18.7369 30.0307 18.625 30.3125 18.625C30.5943 18.625 30.8645 18.7369 31.0638 18.9362C31.2631 19.1355 31.375 19.4057 31.375 19.6875V21.8125Z" fill="#FEFEFE"/>
<defs>
<linearGradient id="paint0_linear_738_597" x1="0" y1="0" x2="50" y2="50" gradientUnits="userSpaceOnUse">
<stop stop-color="#0F5DC7"/>
<stop offset="0.498949" stop-color="#00A4F9"/>
<stop offset="0.958252" stop-color="#0F5DC7"/>
</linearGradient>
</defs>
</svg>
