<svg width="25" height="24" viewBox="0 0 25 24" fill="none" xmlns="http://www.w3.org/2000/svg">
<path d="M22.4201 11.6C20.4001 6.91 16.6001 4 12.5001 4C8.40007 4 4.60007 6.91 2.58007 11.6C2.525 11.7262 2.49658 11.8623 2.49658 12C2.49658 12.1377 2.525 12.2738 2.58007 12.4C4.60007 17.09 8.40007 20 12.5001 20C16.6001 20 20.4001 17.09 22.4201 12.4C22.4751 12.2738 22.5036 12.1377 22.5036 12C22.5036 11.8623 22.4751 11.7262 22.4201 11.6ZM12.5001 18C9.33007 18 6.33007 15.71 4.60007 12C6.33007 8.29 9.33007 6 12.5001 6C15.6701 6 18.6701 8.29 20.4001 12C18.6701 15.71 15.6701 18 12.5001 18ZM12.5001 8C11.7089 8 10.9356 8.2346 10.2778 8.67412C9.61999 9.11365 9.1073 9.73836 8.80455 10.4693C8.5018 11.2002 8.42258 12.0044 8.57693 12.7804C8.73127 13.5563 9.11223 14.269 9.67164 14.8284C10.231 15.3878 10.9438 15.7688 11.7197 15.9231C12.4956 16.0775 13.2999 15.9983 14.0308 15.6955C14.7617 15.3928 15.3864 14.8801 15.8259 14.2223C16.2655 13.5645 16.5001 12.7911 16.5001 12C16.5001 10.9391 16.0786 9.92172 15.3285 9.17157C14.5783 8.42143 13.5609 8 12.5001 8ZM12.5001 14C12.1045 14 11.7178 13.8827 11.3889 13.6629C11.06 13.4432 10.8037 13.1308 10.6523 12.7654C10.5009 12.3999 10.4613 11.9978 10.5385 11.6098C10.6157 11.2219 10.8061 10.8655 11.0859 10.5858C11.3656 10.3061 11.7219 10.1156 12.1099 10.0384C12.4978 9.96126 12.9 10.0009 13.2654 10.1522C13.6309 10.3036 13.9432 10.56 14.163 10.8889C14.3828 11.2178 14.5001 11.6044 14.5001 12C14.5001 12.5304 14.2894 13.0391 13.9143 13.4142C13.5392 13.7893 13.0305 14 12.5001 14Z" fill="white"/>
</svg>
