<svg width="150" height="150" viewBox="0 0 150 150" fill="none" xmlns="http://www.w3.org/2000/svg">
<path d="M92.2 69.7998L72.2188 56.4748C71.2766 55.8462 70.1814 55.4854 69.0501 55.431C67.9188 55.3767 66.7941 55.6307 65.796 56.166C64.7979 56.7013 63.964 57.4978 63.3835 58.4703C62.8029 59.4427 62.4976 60.5547 62.5 61.6873V88.331C62.4998 89.4625 62.8069 90.5729 63.3883 91.5436C63.9697 92.5143 64.8038 93.3089 65.8015 93.8427C66.7992 94.3765 67.9231 94.6295 69.0532 94.5746C70.1834 94.5197 71.2775 94.159 72.2188 93.531L92.2 80.206C93.056 79.6353 93.7578 78.862 94.2433 77.9549C94.7287 77.0478 94.9827 76.0349 94.9827 75.006C94.9827 73.9772 94.7287 72.9643 94.2433 72.0572C93.7578 71.1501 93.056 70.3705 92.2 69.7998Z" stroke="#DBE7F7" stroke-width="8" stroke-linecap="round" stroke-linejoin="round"/>
<path d="M131.25 75C131.25 82.3869 129.795 89.7014 126.968 96.5259C124.141 103.351 119.998 109.551 114.775 114.775C109.551 119.998 103.351 124.141 96.5259 126.968C89.7014 129.795 82.3869 131.25 75 131.25C67.6131 131.25 60.2986 129.795 53.4741 126.968C46.6495 124.141 40.4485 119.998 35.2252 114.775C30.0019 109.551 25.8586 103.351 23.0318 96.5259C20.2049 89.7014 18.75 82.3869 18.75 75C18.75 60.0816 24.6763 45.7742 35.2252 35.2252C45.7742 24.6763 60.0816 18.75 75 18.75C89.9184 18.75 104.226 24.6763 114.775 35.2252C125.324 45.7742 131.25 60.0816 131.25 75Z" stroke="#DBE7F7" stroke-width="8" stroke-linecap="round" stroke-linejoin="round"/>
</svg>
