<svg width="51" height="50" viewBox="0 0 51 50" fill="none" xmlns="http://www.w3.org/2000/svg">
<rect x="0.333252" width="50" height="50" rx="5" fill="url(#paint0_linear_947_516)"/>
<path d="M25.3304 9.89063C23.8277 9.89063 22.3866 10.4875 21.3241 11.5501C20.2616 12.6126 19.6647 14.0537 19.6647 15.5563C19.6647 17.0589 20.2616 18.5 21.3241 19.5625C22.3866 20.625 23.8277 21.222 25.3304 21.222C26.833 21.222 28.2741 20.625 29.3366 19.5625C30.3991 18.5 30.996 17.0589 30.996 15.5563C30.996 14.0537 30.3991 12.6126 29.3366 11.5501C28.2741 10.4875 26.833 9.89063 25.3304 9.89063ZM15.9877 24.9915C15.9235 25.2987 15.8914 25.616 15.8914 25.9433L15.8914 32.5533C15.8901 33.9244 16.1881 35.2792 16.7645 36.5233C17.3408 37.7673 18.1817 38.8706 19.2284 39.7562L18.9055 39.8506C17.9472 40.1077 16.9476 40.1735 15.9639 40.0442C14.9802 39.9149 14.0316 39.5931 13.1722 39.0971C12.3129 38.6011 11.5597 37.9408 10.9556 37.1537C10.3515 36.3666 9.90841 35.4682 9.65157 34.5098L8.42968 29.949C8.33344 29.5896 8.30893 29.2148 8.35754 28.846C8.40616 28.4771 8.52695 28.1215 8.71302 27.7993C8.89908 27.4772 9.14678 27.1948 9.44198 26.9684C9.73717 26.742 10.0741 26.5759 10.4334 26.4797L15.9877 24.9915ZM31.4398 39.7562C32.4866 38.8706 33.3274 37.7673 33.9038 36.5233C34.4802 35.2792 34.7781 33.9244 34.7769 32.5533L34.7769 25.9433C34.7756 25.616 34.7442 25.2987 34.6825 24.9915L40.2348 26.4797C40.9603 26.6744 41.5787 27.1493 41.9541 27.7998C42.3295 28.4504 42.4311 29.2234 42.2367 29.949L41.0148 34.5098C40.7506 35.4953 40.2895 36.4171 39.6593 37.2195C39.0292 38.022 38.243 38.6884 37.3482 39.1787C36.4534 39.669 35.4686 39.9729 34.4531 40.0722C33.4377 40.1714 32.4126 40.0639 31.4398 39.7562ZM37.606 13.6677C36.3538 13.6677 35.1529 14.1652 34.2674 15.0506C33.382 15.936 32.8846 17.1369 32.8846 18.3891C32.8846 19.6413 33.382 20.8422 34.2674 21.7276C35.1529 22.6131 36.3538 23.1105 37.606 23.1105C38.8581 23.1105 40.059 22.6131 40.9445 21.7276C41.8299 20.8422 42.3273 19.6413 42.3273 18.3891C42.3273 17.1369 41.8299 15.936 40.9445 15.0506C40.059 14.1652 38.8581 13.6677 37.606 13.6677ZM13.0547 13.6677C11.8026 13.6677 10.6017 14.1652 9.71623 15.0506C8.83079 15.936 8.33336 17.1369 8.33336 18.3891C8.33336 19.6413 8.83079 20.8422 9.71623 21.7276C10.6017 22.6131 11.8026 23.1105 13.0547 23.1105C14.3069 23.1105 15.5078 22.6131 16.3933 21.7276C17.2787 20.8422 17.7761 19.6413 17.7761 18.3891C17.7761 17.1369 17.2787 15.936 16.3933 15.0506C15.5078 14.1652 14.3069 13.6677 13.0547 13.6677ZM20.609 23.1105C19.8577 23.1105 19.1371 23.409 18.6059 23.9402C18.0746 24.4715 17.7761 25.192 17.7761 25.9433L17.7761 32.5533C17.7761 34.5568 18.572 36.4782 19.9887 37.8949C21.4054 39.3116 23.3268 40.1075 25.3304 40.1075C27.3339 40.1075 29.2553 39.3116 30.672 37.8949C32.0887 36.4782 32.8846 34.5568 32.8846 32.5533L32.8846 25.9433C32.8846 25.192 32.5861 24.4715 32.0549 23.9402C31.5236 23.409 30.8031 23.1105 30.0517 23.1105L20.609 23.1105Z" fill="#FEFEFE"/>
<defs>
<linearGradient id="paint0_linear_947_516" x1="0.333252" y1="0" x2="50.3333" y2="50" gradientUnits="userSpaceOnUse">
<stop stop-color="#0F5DC7"/>
<stop offset="0.498949" stop-color="#00A4F9"/>
<stop offset="0.958252" stop-color="#0F5DC7"/>
</linearGradient>
</defs>
</svg>
