<svg width="50" height="50" viewBox="0 0 50 50" fill="none" xmlns="http://www.w3.org/2000/svg">
<rect width="50" height="50" rx="5" fill="url(#paint0_linear_496_691)"/>
<path d="M25.4479 8.11342C25.3074 8.03871 25.1544 8 24.9995 8C24.8446 8 24.6915 8.03871 24.5511 8.11342L8.61313 16.6136C8.42545 16.7137 8.26746 16.8743 8.1586 17.0757C8.04974 17.2771 7.99475 17.5104 8.00039 17.747C8.00604 17.9837 8.07207 18.2132 8.19037 18.4075C8.30867 18.6018 8.47408 18.7524 8.66626 18.8406L24.6042 26.1265C24.8579 26.2427 25.1411 26.2427 25.3948 26.1265L37.7499 20.4824V34.7141C37.1863 34.7141 36.6458 34.97 36.2472 35.4255C35.8487 35.8809 35.6248 36.4986 35.6248 37.1428V42H42V37.1428C42 36.4986 41.7761 35.8809 41.3776 35.4255C40.9791 34.97 40.4385 34.7141 39.8749 34.7141V19.5085L41.3327 18.8406C41.5249 18.7524 41.6903 18.6018 41.8086 18.4075C41.9269 18.2132 41.9929 17.9837 41.9986 17.747C42.0042 17.5104 41.9492 17.2771 41.8404 17.0757C41.7315 16.8743 41.5735 16.7137 41.3859 16.6136L25.4479 8.11342Z" fill="#FEFEFE"/>
<path d="M16.8733 25.078C16.7365 25.0191 16.5905 24.9931 16.4445 25.0016C16.2985 25.0101 16.1556 25.053 16.0248 25.1275C15.8939 25.2021 15.7779 25.3067 15.6841 25.4348C15.5902 25.5629 15.5205 25.7118 15.4793 25.8721L14.4168 30.0008C14.3423 30.2906 14.3651 30.6018 14.4806 30.8735C14.5962 31.1451 14.7962 31.3579 15.0415 31.4701L24.6043 35.8416C24.858 35.9578 25.1412 35.9578 25.3949 35.8416L34.9576 31.4701C35.203 31.3579 35.403 31.1451 35.5185 30.8735C35.6341 30.6018 35.6568 30.2906 35.5824 30.0008L34.5199 25.8721C34.4787 25.7118 34.409 25.5629 34.3151 25.4348C34.2213 25.3067 34.1053 25.2021 33.9744 25.1275C33.8436 25.053 33.7007 25.0101 33.5547 25.0016C33.4086 24.9931 33.2627 25.0191 33.1258 25.078L24.9996 28.5606L16.8733 25.078Z" fill="#FEFEFE"/>
<defs>
<linearGradient id="paint0_linear_496_691" x1="0" y1="0" x2="50" y2="50" gradientUnits="userSpaceOnUse">
<stop stop-color="#0B4695"/>
<stop offset="0.498949" stop-color="#5E96E3"/>
<stop offset="0.958252" stop-color="#0B4695"/>
</linearGradient>
</defs>
</svg>
