<svg width="50" height="50" viewBox="0 0 50 50" fill="none" xmlns="http://www.w3.org/2000/svg">
<rect width="50" height="50" rx="5" fill="url(#paint0_linear_947_600)"/>
<path d="M19.6478 12.6286C19.8462 12.6045 20.0657 12.6045 20.3207 12.6045H29.6793C29.9342 12.6045 30.1538 12.6045 30.3522 12.6286C31.0562 12.7162 31.7109 13.0361 32.2125 13.5378C32.7142 14.0394 33.0342 14.6941 33.1217 15.3982L33.126 15.4378H34.2678C34.5682 15.435 35.2269 15.4293 35.7709 15.7934C36.475 16.2623 36.6875 17.0684 36.6875 17.917C36.6875 21.7788 34.6291 24.3572 32.0012 25.7894C30.5349 28.4584 27.8263 30.3128 25 30.3128C22.8481 30.3128 20.8067 29.1483 19.3376 27.5376C18.8494 27.005 18.421 26.4207 18.0597 25.7951C15.4332 24.3699 13.3125 21.7944 13.3125 17.917C13.3125 17.067 13.525 16.2623 14.2277 15.7934C14.7731 15.4293 15.4318 15.435 15.7322 15.4378H16.874L16.8783 15.3982C16.9658 14.6941 17.2858 14.0394 17.7875 13.5378C18.2891 13.0361 18.9438 12.7162 19.6478 12.6286ZM34.537 17.5699C34.4276 17.5633 34.3179 17.5609 34.2083 17.5628H33.1416L33.0963 22.2237C34.0001 21.1357 34.5625 19.7162 34.5625 17.917C34.5625 17.7498 34.5497 17.6393 34.537 17.5699ZM15.4375 17.917C15.4375 19.6694 15.9872 21.062 16.8683 22.1415C16.7748 21.0847 16.8003 20.0108 16.8258 18.9427C16.8391 18.4799 16.8471 18.0199 16.8499 17.5628H15.7917C15.6372 17.5628 15.5395 17.5628 15.4644 17.5699C15.4445 17.6845 15.4355 17.8007 15.4375 17.917ZM25.3258 17.2866C25.2986 17.2227 25.2532 17.1682 25.1953 17.1299C25.1374 17.0916 25.0694 17.0712 25 17.0712C24.9306 17.0712 24.8626 17.0916 24.8047 17.1299C24.7468 17.1682 24.7014 17.2227 24.6742 17.2866L23.9587 19.0036C23.9338 19.0635 23.8928 19.1154 23.8404 19.1536C23.7879 19.1919 23.7259 19.2149 23.6613 19.2203L21.8068 19.3691C21.7371 19.3746 21.6705 19.4007 21.6156 19.444C21.5606 19.4873 21.5197 19.5459 21.498 19.6124C21.4764 19.679 21.4749 19.7504 21.4938 19.8178C21.5127 19.8852 21.5511 19.9454 21.6042 19.991L23.0167 21.2008C23.066 21.2433 23.1027 21.2986 23.1227 21.3606C23.1427 21.4225 23.1452 21.4888 23.13 21.5522L22.6993 23.3598C22.6827 23.428 22.6868 23.4997 22.711 23.5656C22.7351 23.6315 22.7784 23.6887 22.8351 23.73C22.8919 23.7713 22.9597 23.7948 23.0299 23.7975C23.1 23.8002 23.1694 23.782 23.2292 23.7452L24.8158 22.7762C24.8713 22.7424 24.935 22.7245 25 22.7245C25.065 22.7245 25.1287 22.7424 25.1842 22.7762L26.7708 23.7452C26.8306 23.782 26.9 23.8002 26.9701 23.7975C27.0403 23.7948 27.1081 23.7713 27.1649 23.73C27.2216 23.6887 27.2649 23.6315 27.289 23.5656C27.3132 23.4997 27.3173 23.428 27.3007 23.3598L26.8686 21.5522C26.8533 21.4888 26.8559 21.4225 26.8759 21.3606C26.8958 21.2986 26.9325 21.2433 26.9819 21.2008L28.3958 19.991C28.4494 19.9455 28.4882 19.8852 28.5074 19.8176C28.5266 19.75 28.5253 19.6782 28.5036 19.6114C28.4818 19.5445 28.4407 19.4857 28.3854 19.4423C28.3302 19.3989 28.2632 19.3729 28.1932 19.3677L26.3402 19.2203C26.2752 19.2152 26.213 19.1922 26.1602 19.154C26.1075 19.1157 26.0663 19.0637 26.0412 19.0036L25.3258 17.2866ZM25 31.0212C25.2818 31.0212 25.552 31.1331 25.7513 31.3324C25.9506 31.5316 26.0625 31.8019 26.0625 32.0837V35.2712H30.6667C30.9485 35.2712 31.2187 35.3831 31.418 35.5824C31.6172 35.7816 31.7292 36.0519 31.7292 36.3337C31.7292 36.6154 31.6172 36.8857 31.418 37.085C31.2187 37.2842 30.9485 37.3962 30.6667 37.3962H19.3333C19.0515 37.3962 18.7813 37.2842 18.582 37.085C18.3828 36.8857 18.2708 36.6154 18.2708 36.3337C18.2708 36.0519 18.3828 35.7816 18.582 35.5824C18.7813 35.3831 19.0515 35.2712 19.3333 35.2712H23.9375V32.0837C23.9375 31.8019 24.0494 31.5316 24.2487 31.3324C24.448 31.1331 24.7182 31.0212 25 31.0212Z" fill="white"/>
<defs>
<linearGradient id="paint0_linear_947_600" x1="0" y1="0" x2="50" y2="50" gradientUnits="userSpaceOnUse">
<stop stop-color="#0F5DC7"/>
<stop offset="0.498949" stop-color="#00A4F9"/>
<stop offset="0.958252" stop-color="#0F5DC7"/>
</linearGradient>
</defs>
</svg>
