<svg width="51" height="50" viewBox="0 0 51 50" fill="none" xmlns="http://www.w3.org/2000/svg">
<rect x="0.333252" width="50" height="50" rx="5" fill="url(#paint0_linear_947_399)"/>
<path d="M25.7811 8.11342C25.6407 8.03871 25.4877 8 25.3327 8C25.1778 8 25.0248 8.03871 24.8844 8.11342L8.94638 16.6136C8.7587 16.7137 8.60071 16.8743 8.49185 17.0757C8.38299 17.2771 8.328 17.5104 8.33365 17.747C8.33929 17.9837 8.40532 18.2132 8.52362 18.4075C8.64192 18.6018 8.80733 18.7524 8.99951 18.8406L24.9375 26.1265C25.1912 26.2427 25.4743 26.2427 25.728 26.1265L38.0831 20.4824V34.7141C37.5195 34.7141 36.979 34.97 36.5805 35.4255C36.182 35.8809 35.9581 36.4986 35.9581 37.1428V42H42.3333V37.1428C42.3333 36.4986 42.1094 35.8809 41.7108 35.4255C41.3123 34.97 40.7718 34.7141 40.2082 34.7141V19.5085L41.666 18.8406C41.8582 18.7524 42.0236 18.6018 42.1419 18.4075C42.2602 18.2132 42.3262 17.9837 42.3318 17.747C42.3375 17.5104 42.2825 17.2771 42.1736 17.0757C42.0648 16.8743 41.9068 16.7137 41.7191 16.6136L25.7811 8.11342Z" fill="#FEFEFE"/>
<path d="M17.2066 25.078C17.0698 25.0191 16.9238 24.9931 16.7778 25.0016C16.6318 25.0101 16.4889 25.053 16.358 25.1275C16.2272 25.2021 16.1112 25.3067 16.0173 25.4348C15.9235 25.5629 15.8538 25.7118 15.8126 25.8721L14.75 30.0008C14.6756 30.2906 14.6984 30.6018 14.8139 30.8735C14.9294 31.1451 15.1294 31.3579 15.3748 31.4701L24.9376 35.8416C25.1913 35.9578 25.4744 35.9578 25.7281 35.8416L35.2909 31.4701C35.5363 31.3579 35.7363 31.1451 35.8518 30.8735C35.9673 30.6018 35.9901 30.2906 35.9157 30.0008L34.8531 25.8721C34.8119 25.7118 34.7422 25.5629 34.6484 25.4348C34.5545 25.3067 34.4385 25.2021 34.3077 25.1275C34.1768 25.053 34.0339 25.0101 33.8879 25.0016C33.7419 24.9931 33.5959 25.0191 33.4591 25.078L25.3328 28.5606L17.2066 25.078Z" fill="#FEFEFE"/>
<defs>
<linearGradient id="paint0_linear_947_399" x1="0.333252" y1="0" x2="50.3333" y2="50" gradientUnits="userSpaceOnUse">
<stop stop-color="#0F5DC7"/>
<stop offset="0.498949" stop-color="#00A4F9"/>
<stop offset="0.958252" stop-color="#0F5DC7"/>
</linearGradient>
</defs>
</svg>
