<svg width="51" height="50" viewBox="0 0 51 50" fill="none" xmlns="http://www.w3.org/2000/svg">
<rect x="0.666504" width="50" height="50" rx="5" fill="url(#paint0_linear_947_607)"/>
<path d="M17.1665 39.1663V33.0747C15.8207 31.8469 14.7761 30.4128 14.0328 28.7723C13.2896 27.1318 12.9174 25.402 12.9165 23.583C12.9165 20.0413 14.1561 17.0309 16.6353 14.5518C19.1144 12.0726 22.1248 10.833 25.6665 10.833C28.6179 10.833 31.2331 11.701 33.512 13.4368C35.7909 15.1727 37.2723 17.4333 37.9561 20.2184L39.7978 27.4788C39.9158 27.9275 39.8332 28.335 39.5498 28.7014C39.2665 29.0679 38.8887 29.2506 38.4165 29.2497H35.5832V33.4997C35.5832 34.2788 35.306 34.9461 34.7516 35.5014C34.1972 36.0568 33.5299 36.334 32.7498 36.333H29.9165V39.1663H17.1665ZM24.2498 27.833H27.0832V17.9163H24.2498V27.833ZM28.4998 25.708H31.3332V19.333H28.4998V25.708ZM19.9998 24.9997H22.8332V19.333H19.9998V24.9997Z" fill="#FEFEFE"/>
<defs>
<linearGradient id="paint0_linear_947_607" x1="0.666504" y1="0" x2="50.6665" y2="50" gradientUnits="userSpaceOnUse">
<stop stop-color="#0F5DC7"/>
<stop offset="0.498949" stop-color="#00A4F9"/>
<stop offset="0.958252" stop-color="#0F5DC7"/>
</linearGradient>
</defs>
</svg>
