<svg width="50" height="50" viewBox="0 0 50 50" fill="none" xmlns="http://www.w3.org/2000/svg">
<rect width="50" height="50" rx="5" fill="url(#paint0_linear_660_651)"/>
<path d="M38.8125 19.4923V15.4375C38.8125 14.8739 38.5886 14.3334 38.1901 13.9349C37.7916 13.5364 37.2511 13.3125 36.6875 13.3125H13.3125C12.7489 13.3125 12.2084 13.5364 11.8099 13.9349C11.4114 14.3334 11.1875 14.8739 11.1875 15.4375V32.4375C11.1875 33.0011 11.4114 33.5416 11.8099 33.9401C12.2084 34.3386 12.7489 34.5625 13.3125 34.5625H29.25V37.75C29.2483 37.9373 29.2962 38.1217 29.3887 38.2846C29.4813 38.4475 29.6153 38.5829 29.7771 38.6773C29.9389 38.7717 30.1228 38.8216 30.3101 38.8221C30.4974 38.8225 30.6815 38.7734 30.8438 38.6797L34.0312 36.8548L37.2188 38.6797C37.381 38.7734 37.5651 38.8225 37.7524 38.8221C37.9397 38.8216 38.1236 38.7717 38.2854 38.6773C38.4472 38.5829 38.5812 38.4475 38.6738 38.2846C38.7663 38.1217 38.8142 37.9373 38.8125 37.75V29.4452C39.4842 28.802 40.0187 28.0296 40.3838 27.1743C40.749 26.319 40.9372 25.3987 40.9372 24.4688C40.9372 23.5388 40.749 22.6185 40.3838 21.7632C40.0187 20.9079 39.4842 20.1355 38.8125 19.4923ZM25 27.125H17.5625C17.2807 27.125 17.0105 27.0131 16.8112 26.8138C16.6119 26.6145 16.5 26.3443 16.5 26.0625C16.5 25.7807 16.6119 25.5105 16.8112 25.3112C17.0105 25.1119 17.2807 25 17.5625 25H25C25.2818 25 25.552 25.1119 25.7513 25.3112C25.9506 25.5105 26.0625 25.7807 26.0625 26.0625C26.0625 26.3443 25.9506 26.6145 25.7513 26.8138C25.552 27.0131 25.2818 27.125 25 27.125ZM25 22.875H17.5625C17.2807 22.875 17.0105 22.7631 16.8112 22.5638C16.6119 22.3645 16.5 22.0943 16.5 21.8125C16.5 21.5307 16.6119 21.2605 16.8112 21.0612C17.0105 20.8619 17.2807 20.75 17.5625 20.75H25C25.2818 20.75 25.552 20.8619 25.7513 21.0612C25.9506 21.2605 26.0625 21.5307 26.0625 21.8125C26.0625 22.0943 25.9506 22.3645 25.7513 22.5638C25.552 22.7631 25.2818 22.875 25 22.875ZM36.6875 35.9185L34.5625 34.702C34.4019 34.6102 34.2202 34.5619 34.0352 34.5619C33.8503 34.5619 33.6685 34.6102 33.508 34.702L31.383 35.9185V30.8438C32.2244 31.1953 33.1273 31.3763 34.0392 31.3763C34.9512 31.3763 35.854 31.1953 36.6955 30.8438L36.6875 35.9185ZM34.0312 29.25C33.0856 29.25 32.1612 28.9696 31.3749 28.4442C30.5887 27.9188 29.9758 27.1721 29.614 26.2985C29.2521 25.4248 29.1574 24.4634 29.3419 23.536C29.5264 22.6085 29.9817 21.7566 30.6504 21.0879C31.3191 20.4192 32.171 19.9639 33.0985 19.7794C34.0259 19.5949 34.9873 19.6896 35.861 20.0515C36.7346 20.4133 37.4813 21.0262 38.0067 21.8124C38.5321 22.5987 38.8125 23.5231 38.8125 24.4688C38.8125 25.0966 38.6888 25.7184 38.4485 26.2985C38.2083 26.8785 37.8561 27.4056 37.4121 27.8496C36.9681 28.2936 36.441 28.6458 35.861 28.886C35.2809 29.1263 34.6591 29.25 34.0312 29.25Z" fill="white"/>
<defs>
<linearGradient id="paint0_linear_660_651" x1="0" y1="0" x2="50" y2="50" gradientUnits="userSpaceOnUse">
<stop stop-color="#0B4695"/>
<stop offset="0.498949" stop-color="#5E96E3"/>
<stop offset="0.958252" stop-color="#0B4695"/>
</linearGradient>
</defs>
</svg>
