<svg width="50" height="50" viewBox="0 0 50 50" fill="none" xmlns="http://www.w3.org/2000/svg">
<rect width="50" height="50" rx="5" fill="url(#paint0_linear_660_605)"/>
<path d="M24.9971 9.89063C23.4945 9.89063 22.0534 10.4875 20.9909 11.5501C19.9284 12.6126 19.3314 14.0537 19.3314 15.5563C19.3314 17.0589 19.9284 18.5 20.9909 19.5625C22.0534 20.625 23.4945 21.222 24.9971 21.222C26.4997 21.222 27.9408 20.625 29.0033 19.5625C30.0658 18.5 30.6628 17.0589 30.6628 15.5563C30.6628 14.0537 30.0658 12.6126 29.0033 11.5501C27.9408 10.4875 26.4997 9.89063 24.9971 9.89063ZM15.6544 24.9915C15.5902 25.2987 15.5581 25.616 15.5581 25.9433L15.5581 32.5533C15.5569 33.9244 15.8548 35.2792 16.4312 36.5233C17.0076 37.7673 17.8485 38.8706 18.8952 39.7562L18.5722 39.8506C17.6139 40.1077 16.6144 40.1735 15.6306 40.0442C14.6469 39.9149 13.6983 39.5931 12.839 39.0971C11.9796 38.6011 11.2264 37.9408 10.6223 37.1537C10.0183 36.3666 9.57515 35.4682 9.31832 34.5098L8.09643 29.949C8.00019 29.5896 7.97568 29.2148 8.02429 28.846C8.07291 28.4771 8.1937 28.1215 8.37976 27.7993C8.56583 27.4772 8.81353 27.1948 9.10872 26.9684C9.40391 26.742 9.74081 26.5759 10.1002 26.4797L15.6544 24.9915ZM31.1066 39.7562C32.1533 38.8706 32.9942 37.7673 33.5706 36.5233C34.1469 35.2792 34.4449 33.9244 34.4436 32.5533L34.4436 25.9433C34.4424 25.616 34.4109 25.2987 34.3492 24.9915L39.9016 26.4797C40.627 26.6744 41.2454 27.1493 41.6208 27.7998C41.9962 28.4504 42.0979 29.2234 41.9034 29.949L40.6815 34.5098C40.4174 35.4953 39.9563 36.4171 39.3261 37.2195C38.6959 38.022 37.9097 38.6884 37.0149 39.1787C36.1202 39.669 35.1353 39.9729 34.1199 40.0722C33.1044 40.1714 32.0794 40.0639 31.1066 39.7562ZM37.2727 13.6677C36.0205 13.6677 34.8196 14.1652 33.9342 15.0506C33.0487 15.936 32.5513 17.1369 32.5513 18.3891C32.5513 19.6413 33.0487 20.8422 33.9342 21.7276C34.8196 22.6131 36.0205 23.1105 37.2727 23.1105C38.5249 23.1105 39.7258 22.6131 40.6112 21.7276C41.4967 20.8422 41.9941 19.6413 41.9941 18.3891C41.9941 17.1369 41.4967 15.936 40.6112 15.0506C39.7258 14.1652 38.5249 13.6677 37.2727 13.6677ZM12.7215 13.6677C11.4693 13.6677 10.2684 14.1652 9.38297 15.0506C8.49754 15.936 8.00011 17.1369 8.00011 18.3891C8.00011 19.6413 8.49754 20.8422 9.38297 21.7276C10.2684 22.6131 11.4693 23.1105 12.7215 23.1105C13.9737 23.1105 15.1746 22.6131 16.06 21.7276C16.9455 20.8422 17.4429 19.6413 17.4429 18.3891C17.4429 17.1369 16.9455 15.936 16.06 15.0506C15.1746 14.1652 13.9737 13.6677 12.7215 13.6677ZM20.2757 23.1105C19.5244 23.1105 18.8039 23.409 18.2726 23.9402C17.7413 24.4715 17.4429 25.192 17.4429 25.9433L17.4429 32.5533C17.4429 34.5568 18.2388 36.4782 19.6555 37.8949C21.0722 39.3116 22.9936 40.1075 24.9971 40.1075C27.0006 40.1075 28.922 39.3116 30.3387 37.8949C31.7554 36.4782 32.5513 34.5568 32.5513 32.5533L32.5513 25.9433C32.5513 25.192 32.2529 24.4715 31.7216 23.9402C31.1903 23.409 30.4698 23.1105 29.7185 23.1105L20.2757 23.1105Z" fill="#FEFEFE"/>
<defs>
<linearGradient id="paint0_linear_660_605" x1="0" y1="0" x2="50" y2="50" gradientUnits="userSpaceOnUse">
<stop stop-color="#0B4695"/>
<stop offset="0.498949" stop-color="#5E96E3"/>
<stop offset="0.958252" stop-color="#0B4695"/>
</linearGradient>
</defs>
</svg>
