<svg width="50" height="50" viewBox="0 0 50 50" fill="none" xmlns="http://www.w3.org/2000/svg">
<rect width="50" height="50" rx="5" fill="url(#paint0_linear_496_670)"/>
<path d="M16.5 39.1663V33.0747C15.1542 31.8469 14.1096 30.4128 13.3663 28.7723C12.6231 27.1318 12.2509 25.402 12.25 23.583C12.25 20.0413 13.4896 17.0309 15.9688 14.5518C18.4479 12.0726 21.4583 10.833 25 10.833C27.9514 10.833 30.5666 11.701 32.8455 13.4368C35.1244 15.1727 36.6058 17.4333 37.2896 20.2184L39.1313 27.4788C39.2493 27.9275 39.1667 28.335 38.8833 28.7014C38.6 29.0679 38.2222 29.2506 37.75 29.2497H34.9167V33.4997C34.9167 34.2788 34.6395 34.9461 34.0851 35.5014C33.5307 36.0568 32.8634 36.334 32.0833 36.333H29.25V39.1663H16.5ZM23.5833 27.833H26.4167V17.9163H23.5833V27.833ZM27.8333 25.708H30.6667V19.333H27.8333V25.708ZM19.3333 24.9997H22.1667V19.333H19.3333V24.9997Z" fill="#FEFEFE"/>
<defs>
<linearGradient id="paint0_linear_496_670" x1="0" y1="0" x2="50" y2="50" gradientUnits="userSpaceOnUse">
<stop stop-color="#0B4695"/>
<stop offset="0.498949" stop-color="#5E96E3"/>
<stop offset="0.958252" stop-color="#0B4695"/>
</linearGradient>
</defs>
</svg>
