<svg width="24" height="24" viewBox="0 0 24 24" fill="none" xmlns="http://www.w3.org/2000/svg">
<path d="M15.001 2.5C21.9047 2.5 27.501 8.09625 27.501 15C27.501 21.9037 21.9047 27.5 15.001 27.5C12.7919 27.5038 10.6217 26.9192 8.7135 25.8063L2.506 27.5L4.196 21.29C3.08219 19.3812 2.49712 17.21 2.501 15C2.501 8.09625 8.09725 2.5 15.001 2.5ZM10.741 9.125L10.491 9.135C10.3294 9.14614 10.1714 9.18859 10.026 9.26C9.89046 9.33689 9.7667 9.43287 9.6585 9.545C9.5085 9.68625 9.4235 9.80875 9.33225 9.9275C8.8699 10.5286 8.62096 11.2666 8.62475 12.025C8.62725 12.6375 8.78725 13.2338 9.03725 13.7913C9.5485 14.9187 10.3897 16.1125 11.4997 17.2188C11.7672 17.485 12.0297 17.7525 12.3122 18.0013C13.6915 19.2155 15.3351 20.0912 17.1122 20.5588L17.8222 20.6675C18.0535 20.68 18.2847 20.6625 18.5172 20.6512C18.8812 20.6321 19.2366 20.5335 19.5585 20.3625C19.7221 20.2779 19.8818 20.1862 20.0372 20.0875C20.0372 20.0875 20.0902 20.0517 20.1935 19.975C20.3622 19.85 20.466 19.7612 20.606 19.615C20.711 19.5067 20.7985 19.3808 20.8685 19.2375C20.966 19.0338 21.0635 18.645 21.1035 18.3212C21.1335 18.0737 21.1247 17.9388 21.121 17.855C21.116 17.7213 21.0047 17.5825 20.8835 17.5238L20.156 17.1975C20.156 17.1975 19.0685 16.7238 18.4035 16.4213C18.3339 16.3909 18.2593 16.3736 18.1835 16.37C18.098 16.3611 18.0115 16.3706 17.93 16.398C17.8485 16.4254 17.7738 16.47 17.711 16.5287C17.7047 16.5262 17.621 16.5975 16.7172 17.6925C16.6654 17.7622 16.5939 17.8149 16.512 17.8438C16.4301 17.8728 16.3414 17.8767 16.2572 17.855C16.1758 17.8333 16.096 17.8057 16.0185 17.7725C15.8635 17.7075 15.8097 17.6825 15.7035 17.6375C14.9858 17.3249 14.3215 16.9018 13.7347 16.3838C13.5772 16.2463 13.431 16.0962 13.281 15.9513C12.7893 15.4803 12.3607 14.9475 12.006 14.3663L11.9322 14.2475C11.8801 14.1672 11.8373 14.0813 11.8047 13.9913C11.7572 13.8075 11.881 13.66 11.881 13.66C11.881 13.66 12.1847 13.3275 12.326 13.1475C12.4635 12.9725 12.5797 12.8025 12.6547 12.6813C12.8022 12.4438 12.8485 12.2 12.771 12.0113C12.421 11.1562 12.0593 10.3058 11.686 9.46C11.6122 9.2925 11.3935 9.1725 11.1947 9.14875C11.1272 9.14042 11.0597 9.13375 10.9922 9.12875C10.8244 9.11912 10.6561 9.12079 10.4885 9.13375L10.741 9.125Z"/>
</svg>
